HIERARCHY
ROOT Hips
{
	OFFSET 0.00 0.00 0.00
	CHANNELS 6 Xposition Yposition Zposition Zrotation Yrotation Xrotation
	JOINT Spine
	{
		OFFSET	0.0000	12.9474	1.3069
		CHANNELS 3 Zrotation Yrotation Xrotation
		JOINT Spine1
		{
			OFFSET	0.0000	11.6502	0.0897
			CHANNELS 3 Zrotation Yrotation Xrotation
			JOINT Spine2
			{
				OFFSET	0.0000	11.8996	-0.0200
				CHANNELS 3 Zrotation Yrotation Xrotation
				JOINT Neck
				{
					OFFSET	0.0000	29.8625	-6.8568
					CHANNELS 3 Zrotation Yrotation Xrotation
					JOINT Head
					{
						OFFSET	0.0000	15.8127	4.5046
						CHANNELS 3 Zrotation Yrotation Xrotation
						End Site
						{
							OFFSET 0.0000 16.9142 8.5489
						}
					}
				}
				JOINT LeftShoulder
				{
					OFFSET	15.6932	30.5276	-14.8855
					CHANNELS 3 Zrotation Yrotation Xrotation
					JOINT LeftArm
					{
						OFFSET	15.1106	-10.2541	-0.0017
						CHANNELS 3 Zrotation Yrotation Xrotation
						JOINT LeftForeArm
						{
							OFFSET	31.4047	-20.2208	-1.5857
							CHANNELS 3 Zrotation Yrotation Xrotation
							JOINT LeftHand
							{
								OFFSET	33.6957	-19.2580	15.6991
								CHANNELS 3 Zrotation Yrotation Xrotation
								JOINT LeftHandMiddle1
								{
									OFFSET	11.0571	-10.4817	9.4547
									CHANNELS 3 Zrotation Yrotation Xrotation
									JOINT LeftHandMiddle2
									{
										OFFSET	3.4215	-5.0087	3.1670
										CHANNELS 3 Zrotation Yrotation Xrotation
										JOINT LeftHandMiddle3
										{
											OFFSET	1.8148	-4.7192	2.5351
											CHANNELS 3 Zrotation Yrotation Xrotation
											End Site
											{
												OFFSET 0.5564 -3.7387 2.3634
											}
										}
									}
								}
								JOINT LeftHandThumb1
								{
									OFFSET	-1.0031	-1.2668	10.5842
									CHANNELS 3 Zrotation Yrotation Xrotation
									JOINT LeftHandThumb2
									{
										OFFSET	0.2584	0.1803	6.9748
										CHANNELS 3 Zrotation Yrotation Xrotation
										JOINT LeftHandThumb3
										{
											OFFSET	0.4558	-1.3006	4.2279
											CHANNELS 3 Zrotation Yrotation Xrotation
											End Site
											{
												OFFSET 0.3543 -2.2515 4.8270
											}
										}
									}
								}
								JOINT LeftHandIndex1
								{
									OFFSET	10.1078	-6.3687	14.1094
									CHANNELS 3 Zrotation Yrotation Xrotation
									JOINT LeftHandIndex2
									{
										OFFSET	3.1194	-3.8277	3.9230
										CHANNELS 3 Zrotation Yrotation Xrotation
										JOINT LeftHandIndex3
										{
											OFFSET	1.3756	-4.1963	2.9070
											CHANNELS 3 Zrotation Yrotation Xrotation
											End Site
											{
												OFFSET 0.6727 -3.7890 2.5988
											}
										}
									}
								}
								JOINT LeftHandRing1
								{
									OFFSET	10.0847	-13.6899	4.3344
									CHANNELS 3 Zrotation Yrotation Xrotation
									JOINT LeftHandRing2
									{
										OFFSET	3.2413	-5.1039	1.8840
										CHANNELS 3 Zrotation Yrotation Xrotation
										JOINT LeftHandRing3
										{
											OFFSET	1.5323	-5.0397	1.9270
											CHANNELS 3 Zrotation Yrotation Xrotation
											End Site
											{
												OFFSET 0.8809 -4.1420 1.4919
											}
										}
									}
								}
								JOINT LeftHandPinky1
								{
									OFFSET	9.0408	-16.1777	-0.5730
									CHANNELS 3 Zrotation Yrotation Xrotation
									JOINT LeftHandPinky2
									{
										OFFSET	2.5791	-4.9057	0.6134
										CHANNELS 3 Zrotation Yrotation Xrotation
										JOINT LeftHandPinky3
										{
											OFFSET	0.8052	-3.7871	1.3188
											CHANNELS 3 Zrotation Yrotation Xrotation
											End Site
											{
												OFFSET 0.2188 -3.8976 1.6089
											}
										}
									}
								}
							}
						}
					}
				}
				JOINT RightShoulder
				{
					OFFSET	-15.6932	30.5276	-14.8855
					CHANNELS 3 Zrotation Yrotation Xrotation
					JOINT RightArm
					{
						OFFSET	-15.1106	-10.2541	-0.0017
						CHANNELS 3 Zrotation Yrotation Xrotation
						JOINT RightForeArm
						{
							OFFSET	-31.4047	-20.2208	-1.5857
							CHANNELS 3 Zrotation Yrotation Xrotation
							JOINT RightHand
							{
								OFFSET	-33.6957	-19.2580	15.6991
								CHANNELS 3 Zrotation Yrotation Xrotation
								JOINT RightHandThumb1
								{
									OFFSET	1.0031	-1.2668	10.5842
									CHANNELS 3 Zrotation Yrotation Xrotation
									JOINT RightHandThumb2
									{
										OFFSET	-0.2584	0.1803	6.9748
										CHANNELS 3 Zrotation Yrotation Xrotation
										JOINT RightHandThumb3
										{
											OFFSET	-0.4558	-1.3006	4.2279
											CHANNELS 3 Zrotation Yrotation Xrotation
											End Site
											{
												OFFSET -0.3543 -2.2515 4.8270
											}
										}
									}
								}
								JOINT RightHandIndex1
								{
									OFFSET	-10.1078	-6.3687	14.1094
									CHANNELS 3 Zrotation Yrotation Xrotation
									JOINT RightHandIndex2
									{
										OFFSET	-3.1194	-3.8277	3.9230
										CHANNELS 3 Zrotation Yrotation Xrotation
										JOINT RightHandIndex3
										{
											OFFSET	-1.3756	-4.1963	2.9070
											CHANNELS 3 Zrotation Yrotation Xrotation
											End Site
											{
												OFFSET -0.6727 -3.7890 2.5988
											}
										}
									}
								}
								JOINT RightHandMiddle1
								{
									OFFSET	-11.0571	-10.4817	9.4547
									CHANNELS 3 Zrotation Yrotation Xrotation
									JOINT RightHandMiddle2
									{
										OFFSET	-3.4215	-5.0087	3.1670
										CHANNELS 3 Zrotation Yrotation Xrotation
										JOINT RightHandMiddle3
										{
											OFFSET	-1.8148	-4.7192	2.5351
											CHANNELS 3 Zrotation Yrotation Xrotation
											End Site
											{
												OFFSET -0.5564 -3.7387 2.3634
											}
										}
									}
								}
								JOINT RightHandRing1
								{
									OFFSET	-10.0847	-13.6899	4.3344
									CHANNELS 3 Zrotation Yrotation Xrotation
									JOINT RightHandRing2
									{
										OFFSET	-3.2413	-5.1039	1.8840
										CHANNELS 3 Zrotation Yrotation Xrotation
										JOINT RightHandRing3
										{
											OFFSET	-1.5323	-5.0397	1.9270
											CHANNELS 3 Zrotation Yrotation Xrotation
											End Site
											{
												OFFSET -0.8809 -4.1420 1.4919
											}
										}
									}
								}
								JOINT RightHandPinky1
								{
									OFFSET	-9.0408	-16.1777	-0.5730
									CHANNELS 3 Zrotation Yrotation Xrotation
									JOINT RightHandPinky2
									{
										OFFSET	-2.5791	-4.9057	0.6134
										CHANNELS 3 Zrotation Yrotation Xrotation
										JOINT RightHandPinky3
										{
											OFFSET	-0.8052	-3.7871	1.3188
											CHANNELS 3 Zrotation Yrotation Xrotation
											End Site
											{
												OFFSET -0.2188 -3.8976 1.6089
											}
										}
									}
								}
							}
						}
					}
				}
			}
		}
	}
	JOINT LeftUpLeg
	{
		OFFSET	15.6585	-8.4068	1.4670
		CHANNELS 3 Zrotation Yrotation Xrotation
		JOINT LeftLeg
		{
			OFFSET	4.8126	-36.5793	1.4225
			CHANNELS 3 Zrotation Yrotation Xrotation
			JOINT LeftFoot
			{
				OFFSET	3.3315	-36.9309	-9.3826
				CHANNELS 3 Zrotation Yrotation Xrotation
				JOINT LeftToeBase
				{
					OFFSET	5.8406	-16.0536	19.7570
					CHANNELS 3 Zrotation Yrotation Xrotation
					End Site
					{
						OFFSET 2.6829 1.8767 15.4928
					}
				}
			}
		}
	}
	JOINT RightUpLeg
	{
		OFFSET	-15.6585	-8.4068	1.4670
		CHANNELS 3 Zrotation Yrotation Xrotation
		JOINT RightLeg
		{
			OFFSET	-4.8126	-36.5793	1.4225
			CHANNELS 3 Zrotation Yrotation Xrotation
			JOINT RightFoot
			{
				OFFSET	-3.3315	-36.9309	-9.3826
				CHANNELS 3 Zrotation Yrotation Xrotation
				JOINT RightToeBase
				{
					OFFSET	-5.8406	-16.0536	19.7570
					CHANNELS 3 Zrotation Yrotation Xrotation
					End Site
					{
						OFFSET -2.6829 1.8767 15.4928
					}
				}
			}
		}
	}
}
MOTION
Frames: 4
Frame Time: 0.0333333
-0.1134 97.6767 -1.4628 -1.1311 -0.1335 -1.5188 0.0803 -0.1324 0.9679 0.1021 -2.4805 1.0155 0.1456 -2.4776 1.0086 -1.4682 0.8106 -2.7715 3.5307 -1.8728 5.4707 5.9378 7.3783 0.4101 -48.0589 -19.5310 16.4881 -2.8284 -4.3142 -2.2094 11.2266 -9.8188 41.5653 -13.0158 -14.6568 -3.6452 -10.3706 -7.5452 -1.7579 -3.4507 -0.7046 4.3947 -6.7656 21.8979 25.4333 3.1670 0.0434 -2.6114 2.1899 4.9971 -5.9517 -11.5133 -6.0521 4.8008 -14.4724 -15.0806 -2.5191 -9.0260 -5.5637 2.1337 -15.0678 -23.9397 -12.7760 -2.1894 -1.0281 -0.4046 -5.9335 -2.7434 -1.5799 -23.7095 -33.2595 -15.8736 -4.2777 -0.1346 4.2546 0.5755 0.5164 2.3307 -10.0736 2.5553 0.5562 51.3529 22.5052 14.6075 2.8936 2.4081 -1.1108 -20.6084 1.4132 33.9147 -4.4411 -15.6256 46.3567 -6.1187 5.8399 -16.4580 -2.3847 -4.6351 -9.9379 4.7443 -1.9448 7.3963 17.1221 16.8324 -1.4088 1.1356 0.6088 0.6619 9.2128 8.5162 0.3820 15.0870 10.1146 -0.8630 -4.2317 -5.1203 3.9514 13.3506 20.3241 -9.6173 6.6113 2.8313 -0.5065 4.1807 0.0877 -1.8507 15.6078 28.1788 -17.5304 1.4471 -2.7464 8.2661 -0.4791 -0.4817 2.3279 -3.1416 3.3395 -14.0158 6.4802 10.8687 24.6862 0.8485 0.8565 -9.3485 -0.0000 -0.0000 -0.4642 1.0454 -13.1117 -14.5549 -3.8909 -5.8906 20.7348 2.0550 -2.8478 -4.3893 0.0000 -0.0000 -0.0000 
0.0637 97.6244 -1.4994 -1.2308 -0.1518 -1.5411 0.0727 -0.1177 1.0054 0.0869 -2.4608 1.0860 0.1318 -2.4581 1.0796 -1.4175 0.7921 -2.7398 3.5759 -1.8894 5.4252 5.9997 7.2380 0.4124 -48.1480 -19.6568 16.5389 -2.8293 -4.2952 -2.1984 11.2050 -9.8705 41.6087 -13.1095 -14.7306 -3.6371 -10.2561 -7.4810 -1.7763 -3.3920 -0.6739 4.3912 -6.7609 21.9081 25.4372 3.1598 0.0454 -2.6230 2.1893 4.9954 -5.9525 -11.6043 -6.1092 4.8330 -14.3114 -14.9695 -2.5821 -8.9452 -5.5147 2.1153 -15.1189 -24.0070 -12.8139 -2.1386 -1.0073 -0.4024 -5.9055 -2.7320 -1.5793 -23.8073 -33.3570 -15.9197 -4.2777 -0.1346 4.2546 0.5745 0.5160 2.3305 -9.9238 2.8034 0.5662 51.2543 22.5894 14.6287 2.8923 2.4600 -1.1408 -20.6683 1.4084 33.8573 -4.5382 -15.7067 46.3594 -6.0806 5.8597 -16.5153 -2.3830 -4.6311 -9.9371 4.7730 -1.8916 7.3595 17.1070 16.8225 -1.4151 1.0923 0.5808 0.6556 9.3407 8.6457 0.3562 15.0187 10.0780 -0.8771 -4.3006 -5.1766 3.9490 13.4156 20.4220 -9.6799 6.5387 2.8015 -0.5056 4.1321 0.0577 -1.8510 15.7412 28.3188 -17.5916 1.4227 -2.7517 8.2701 -0.5778 -0.5184 2.3400 -3.1443 3.3729 -14.1945 6.4805 10.8417 25.0458 0.9796 0.8777 -9.5408 0.0000 0.0000 -0.4458 1.0408 -13.2093 -14.6048 -3.9578 -5.8911 20.7810 2.1878 -2.7213 -4.3213 -0.0000 -0.0000 -0.0000 
0.2345 97.5837 -1.5132 -1.3221 -0.1591 -1.5674 0.0635 -0.1027 1.0376 0.0694 -2.4364 1.1479 0.1156 -2.4338 1.1421 -1.3728 0.7769 -2.6851 3.6188 -1.9065 5.4251 6.0395 7.1757 0.4147 -48.1725 -19.7077 16.5415 -2.8304 -4.2697 -2.1836 11.2067 -9.9274 41.6636 -13.2149 -14.8103 -3.6232 -10.1511 -7.4220 -1.7931 -3.3375 -0.6455 4.3879 -6.7565 21.9179 25.4422 3.1519 0.0481 -2.6360 2.1885 4.9930 -5.9570 -11.6946 -6.1638 4.8678 -14.1639 -14.8674 -2.6396 -8.8704 -5.4692 2.0982 -15.1886 -24.0843 -12.8443 -2.0924 -0.9884 -0.4003 -5.8793 -2.7214 -1.5788 -23.9516 -33.4759 -15.9458 -4.2777 -0.1346 4.2546 0.5737 0.5157 2.3304 -9.8496 2.9513 0.5713 51.2653 22.6492 14.6720 2.8916 2.4881 -1.1568 -20.6690 1.3142 33.7173 -4.6058 -15.7588 46.3701 -6.0510 5.8754 -16.5596 -2.3821 -4.6286 -9.9380 4.8622 -1.8199 7.3700 17.0593 16.7912 -1.4351 1.0162 0.5318 0.6445 9.3417 8.6640 0.3319 15.0448 10.0920 -0.8717 -4.3755 -5.2060 3.9511 13.3621 20.4217 -9.7425 6.6204 2.8351 -0.5066 4.0954 0.0599 -1.8468 15.7111 28.3425 -17.6687 1.5092 -2.7330 8.2561 -0.6226 -0.5350 2.3455 -3.1481 3.4072 -14.3176 6.4494 10.8038 25.3334 1.1180 0.9103 -9.7155 -0.0000 -0.0000 -0.4395 1.0259 -13.3002 -14.6017 -4.0278 -5.9079 20.7770 2.3260 -2.5971 -4.2501 0.0000 0.0000 -0.0001 
0.3850 97.5753 -1.4646 -1.3848 -0.1379 -1.6124 0.0505 -0.0883 1.0571 0.0448 -2.4013 1.1896 0.0922 -2.3989 1.1848 -1.3556 0.7739 -2.5682 3.6564 -1.9236 5.5316 6.0441 7.1580 0.4157 -48.1358 -19.7132 16.5173 -2.8317 -4.2391 -2.1660 11.2219 -9.9751 41.7264 -13.3066 -14.8793 -3.6108 -10.1032 -7.3951 -1.8007 -3.3128 -0.6325 4.3864 -6.7532 21.9256 25.4482 3.1428 0.0528 -2.6521 2.1874 4.9883 -5.9715 -11.7370 -6.1877 4.8865 -14.0968 -14.8209 -2.6657 -8.8364 -5.4485 2.0905 -15.2818 -24.1688 -12.8578 -2.0725 -0.9802 -0.3994 -5.8667 -2.7162 -1.5786 -24.1784 -33.6249 -15.9224 -4.2777 -0.1346 4.2546 0.5738 0.5158 2.3305 -9.8179 3.0386 0.5740 51.3466 22.6955 14.7454 2.8911 2.5091 -1.1689 -20.6324 1.1690 33.5336 -4.5354 -15.7342 46.3353 -6.0920 5.8686 -16.4895 -2.3831 -4.6373 -9.9108 5.1111 -1.7020 7.5097 16.9196 16.6995 -1.4936 0.8555 0.4280 0.6213 8.9086 8.3192 0.2886 15.3715 10.2669 -0.8039 -4.4553 -5.1434 3.9671 12.9186 20.1136 -9.8269 7.1827 3.0660 -0.5119 4.0987 0.1653 -1.8289 15.1397 27.9964 -17.8234 1.9453 -2.6383 8.1857 -0.4984 -0.4889 2.3302 -3.1539 3.4152 -14.2753 6.3374 10.7571 25.4234 1.2698 0.9772 -9.8412 0.0000 -0.0000 -0.4544 0.9762 -13.3610 -14.4481 -4.1031 -5.9648 20.6454 2.4777 -2.4920 -4.1790 -0.0000 -0.0000 -0.0001 
